<?xml version="1.0" standalone="no"?>
<!DOCTYPE svg PUBLIC "-//W3C//DTD SVG 20010904//EN"
 "http://www.w3.org/TR/2001/REC-SVG-20010904/DTD/svg10.dtd">
<svg version="1.0" xmlns="http://www.w3.org/2000/svg"
 width="320.000000pt" height="320.000000pt" viewBox="0 0 320.000000 320.000000"
 preserveAspectRatio="xMidYMid meet">
<metadata>
Created by potrace 1.14, written by Peter Selinger 2001-2017
</metadata>
<g transform="translate(0.000000,320.000000) scale(0.100000,-0.100000)"
fill="#000000" stroke="none">
<path d="M1904 2582 c-156 -54 -282 -202 -303 -354 -11 -84 -7 -91 48 -86 109
11 239 106 295 216 31 62 56 152 56 204 0 33 -3 38 -22 38 -13 -1 -46 -9 -74
-18z"/>
<path d="M1870 2105 c-30 -8 -86 -26 -125 -41 -125 -48 -125 -48 -271 2 -152
51 -214 56 -316 24 -219 -67 -352 -261 -365 -531 -15 -296 123 -654 333 -865
105 -105 185 -118 334 -53 68 30 84 33 175 33 92 0 107 -2 180 -34 99 -42 187
-47 250 -13 91 48 235 238 307 405 21 49 38 92 38 96 0 4 -21 18 -47 32 -151
80 -244 278 -213 451 18 96 56 165 132 242 38 37 68 71 68 76 0 4 -25 31 -55
60 -65 62 -156 106 -245 120 -82 13 -111 13 -180 -4z"/>
</g>
</svg>
